# xmcd
#
# Track frame offsets: 
#        150
#        17252
#        33950
#        51517
#        69760
#        96132
#        114027
#        129447
#        145890
#        152435
#        162787
#        172855
#
# Disc length: 2560 seconds
#
# Revision: 2
# Processed by: cddbd v1.5.2PL0 Copyright (c) Steve Scherf et al.
# Submitted via: ExactAudioCopy v0.95b4
#
DISCID=8209fe0c
DTITLE=K.T. Oslin - Live Close By, Visit Often
DYEAR=1900
DGENRE=Country
TTITLE0=Live Close By, Visit Often
TTITLE1=I Can't Remember Not Loving You
TTITLE2=Somebody's Leavin' Somebody
TTITLE3=Drivin', Cryin', Missin' You
TTITLE4=Neva Sawyer
TTITLE5=A Moment Of Forever
TTITLE6=Mexico Road
TTITLE7=Maybe We Should Learn To Tango
TTITLE8=If You Were The Only Boy In The World
TTITLE9=Mean To Me
TTITLE10=What Is This Thing CAlled Love
TTITLE11=Come On-A My House
EXTD=
EXTT0=
EXTT1=
EXTT2=
EXTT3=
EXTT4=
EXTT5=
EXTT6=
EXTT7=
EXTT8=
EXTT9=
EXTT10=
EXTT11=
PLAYORDER=
